<svg width="44" height="47" viewBox="0 0 44 47" fill="none" xmlns="http://www.w3.org/2000/svg">
<path d="M43.6561 26.1508C42.5451 30.3588 37.2953 33.3323 26.795 39.2797C16.6445 45.0287 11.5695 47.9036 7.47945 46.748C5.7885 46.2702 4.24785 45.3631 3.00532 44.1132C5.61986e-07 41.0901 0 35.2268 0 23.5C0 11.7732 5.61986e-07 5.90977 3.00532 2.8868C4.24785 1.63701 5.7885 0.72969 7.47945 0.251983C11.5695 -0.903494 16.6445 1.97108 26.795 7.7203C37.2953 13.6675 42.5451 16.6411 43.6561 20.8492C44.1146 22.5863 44.1146 24.4136 43.6561 26.1508Z" fill="white"/>
</svg>
